<svg width="1080" height="1207" viewBox="0 0 1080 1207" fill="none" xmlns="http://www.w3.org/2000/svg">
<path d="M672 1134.1V880.164L674.172 878H688.293C695.774 878 700.966 879.924 703.862 883.771C706.998 887.378 708.569 893.39 708.569 901.806V980.439C723.052 968.175 739.707 962.043 758.535 962.043C777.847 962.043 792.691 970.339 803.069 986.931C813.691 1003.52 819 1026.61 819 1056.19C819 1070.13 816.95 1082.64 812.845 1093.7C808.74 1104.76 803.069 1114.26 795.828 1122.19C788.586 1129.89 780.019 1135.78 770.121 1139.87C760.467 1143.96 749.967 1146 738.621 1146C715.448 1146 693.24 1142.03 672 1134.1ZM748.035 993.063C733.552 993.063 720.395 999.917 708.569 1013.62V1113.9C717.498 1116.78 727.881 1118.23 739.707 1118.23C751.778 1118.23 761.671 1112.58 769.397 1101.27C777.122 1089.97 780.983 1073.98 780.983 1053.3C780.983 1032.38 777.964 1017.11 771.931 1007.49C766.138 997.873 758.173 993.063 748.035 993.063Z" fill="#5BEED4"/>
<path d="M144.603 1155.62C140.988 1158.52 136.65 1161.18 131.589 1163.59C126.767 1165.77 121.467 1167.7 115.683 1169.39C109.898 1170.84 103.992 1171.93 97.9687 1172.65C92.1845 1173.62 86.6398 1174.1 81.3393 1174.1C75.7945 1174.1 66.5175 1173.98 53.5032 1173.74C40.4889 1173.5 23.3759 1173.14 2.16908 1172.65L0 1170.12V927.013L2.16908 924.477C23.1365 923.753 49.6487 923.39 81.7008 923.39C101.222 923.39 117.49 926.651 130.504 933.172C143.519 939.694 153.88 948.63 161.594 959.983C169.547 971.335 175.092 984.74 178.223 1000.2C181.355 1015.41 182.923 1031.72 182.923 1049.11C182.923 1073.26 180.27 1094.03 174.97 1111.42C169.909 1128.57 159.786 1143.31 144.603 1155.62ZM81.7008 954.548H38.3199V1142.94H81.7008C122.673 1142.94 143.157 1111.54 143.157 1048.75C143.157 1015.9 137.974 991.986 127.612 977.011C117.49 962.035 102.185 954.548 81.7008 954.548ZM347.927 1157.07C334.673 1170.36 317.199 1177 295.508 1177C282.978 1177 271.893 1174.83 262.25 1170.48C252.611 1165.89 244.418 1159.49 237.667 1151.28C231.16 1142.82 226.099 1132.92 222.484 1121.57C219.113 1109.97 217.423 1097.05 217.423 1082.8C217.423 1068.79 219.113 1055.99 222.484 1044.4C226.099 1032.8 231.16 1022.9 237.667 1014.69C244.418 1006.24 252.611 999.836 262.25 995.488C271.893 990.899 282.978 988.604 295.508 988.604C308.044 988.604 319.128 990.899 328.767 995.488C338.41 999.836 346.481 1006.24 352.988 1014.69C359.739 1022.9 364.801 1032.8 368.171 1044.4C371.786 1055.99 373.594 1068.79 373.594 1082.8C373.594 1115.17 365.04 1139.92 347.927 1157.07ZM295.508 1017.23C269.24 1017.23 256.104 1039.08 256.104 1082.8C256.104 1126.52 269.24 1148.38 295.508 1148.38C322.021 1148.38 335.274 1126.52 335.274 1082.8C335.274 1039.08 322.021 1017.23 295.508 1017.23ZM416.086 1116.13V1031.72C416.086 1017.23 414.034 1006.36 409.94 999.111C415.964 993.797 423.795 991.14 433.438 991.14C446.692 991.14 453.321 998.99 453.321 1014.69V1107.08C453.321 1119.64 454.884 1128.57 458.021 1133.89C461.152 1139.2 466.697 1141.86 474.65 1141.86C482.603 1141.86 490.674 1139.92 498.871 1136.06C507.064 1131.95 514.416 1126.52 520.923 1119.76V993.314C527.67 992.348 533.815 991.865 539.36 991.865C544.9 991.865 551.29 992.348 558.52 993.314V1121.57C558.52 1138.48 561.891 1149.95 568.642 1155.99C565.99 1164.68 561.29 1170.96 554.543 1174.83C539.36 1172.17 529.238 1163.47 524.177 1148.74C505.378 1166.61 485.251 1175.55 463.805 1175.55C447.899 1175.55 435.969 1170.12 428.016 1159.25C420.062 1148.38 416.086 1134.01 416.086 1116.13ZM615.228 1163.23V908.174L617.397 906H631.496C638.97 906 644.149 907.932 647.041 911.797C650.177 915.42 651.74 921.458 651.74 929.912V1008.89C666.2 996.575 682.83 990.416 701.628 990.416C720.91 990.416 735.732 998.749 746.094 1015.41C756.7 1032.08 762 1055.27 762 1084.98C762 1098.98 759.953 1111.54 755.854 1122.66C751.761 1133.77 746.094 1143.31 738.864 1151.28C731.633 1159.01 723.079 1164.92 713.196 1169.03C703.558 1173.14 693.074 1175.19 681.745 1175.19C658.609 1175.19 636.44 1171.2 615.228 1163.23ZM691.145 1021.57C676.684 1021.57 663.553 1028.46 651.74 1042.22V1142.94C660.661 1145.84 671.022 1147.29 682.83 1147.29C694.882 1147.29 704.765 1141.62 712.473 1130.26C720.187 1118.91 724.042 1102.85 724.042 1082.08C724.042 1061.06 721.032 1045.73 715.004 1036.07C709.22 1026.4 701.267 1021.57 691.145 1021.57Z" fill="#E46E6E"/>
<path d="M892.909 1143.39H906.268C908.434 1149.43 909.518 1154.75 909.518 1159.33C909.518 1163.92 909.157 1167.55 908.434 1170.2C898.808 1171.89 888.576 1172.74 877.745 1172.74C853.915 1172.74 842 1160.3 842 1135.42V907.174L844.527 905H858.609C866.069 905 871.246 906.932 874.134 910.797C877.262 914.42 878.828 920.458 878.828 928.912V1127.09C878.828 1137.96 883.522 1143.39 892.909 1143.39ZM1077.47 1093.76H971.322C972.044 1110.42 975.537 1123.23 981.792 1132.16C988.292 1141.1 999.123 1145.57 1014.29 1145.57C1021.51 1145.57 1029.21 1144.48 1037.4 1142.31C1045.82 1140.13 1054.49 1136.63 1063.39 1131.8C1069.41 1137.35 1073.38 1145.33 1075.31 1155.71C1056.05 1169.24 1033.42 1176 1007.43 1176C993.707 1176 982.154 1173.58 972.766 1168.75C963.379 1163.92 955.679 1157.28 949.658 1148.83C943.881 1140.37 939.671 1130.35 937.021 1118.76C934.377 1106.92 933.05 1094.24 933.05 1080.72C933.05 1067.43 934.738 1055.11 938.105 1043.76C941.476 1032.17 946.292 1022.26 952.547 1014.05C958.807 1005.84 966.511 999.439 975.654 994.85C985.042 990.019 995.513 987.604 1007.07 987.604C1018.62 987.604 1028.85 989.537 1037.76 993.401C1046.9 997.265 1054.61 1002.7 1060.86 1009.7C1067.12 1016.47 1071.82 1024.68 1074.95 1034.34C1078.32 1043.76 1080 1054.03 1080 1065.14C1080 1069.97 1079.76 1074.8 1079.28 1079.63C1079.04 1084.22 1078.44 1088.93 1077.47 1093.76ZM1008.15 1015.5C985.286 1015.5 973.01 1032.53 971.322 1066.59H1044.26V1061.88C1044.26 1048.11 1041.25 1037 1035.23 1028.54C1029.45 1019.85 1020.43 1015.5 1008.15 1015.5Z" fill="#E46E6E"/>
<g clip-path="url(#clip0)">
<rect width="800" height="800" transform="translate(140 26)" fill="white"/>
<rect x="140" y="26.5786" width="16" height="800" fill="#E46E6E"/>
<rect x="154.781" y="26" width="20.6161" height="800.619" transform="rotate(1 154.781 26)" fill="#E46E6E"/>
<rect width="16" height="799.144" transform="matrix(0 -1 -1 0 947.422 825.586)" fill="#E46E6E"/>
<rect width="20.6161" height="799.763" transform="matrix(-0.0174337 -0.999848 -0.999847 0.0174711 948 810.613)" fill="#E46E6E"/>
<rect width="16" height="799.144" transform="matrix(0 1 1 0 158.578 26)" fill="#E46E6E"/>
<rect width="20.6161" height="799.763" transform="matrix(0.0174337 0.999848 0.999847 -0.0174711 158 40.9728)" fill="#E46E6E"/>
<rect x="940.394" y="826.279" width="16" height="800" transform="rotate(-180 940.394 826.279)" fill="#E46E6E"/>
<rect x="925.613" y="826.857" width="20.6161" height="800.619" transform="rotate(-179 925.613 826.857)" fill="#E46E6E"/>
<rect x="360" y="246" width="360" height="360" fill="#5BEED4"/>
<rect x="360" y="596.283" width="360" height="16" transform="rotate(-1 360 596.283)" fill="#5BEED4"/>
<rect x="360" y="246.283" width="360" height="16" transform="rotate(-1 360 246.283)" fill="#5BEED4"/>
<rect x="704.898" y="605.747" width="365.556" height="16" transform="rotate(-89 704.898 605.747)" fill="#5BEED4"/>
<rect x="349.001" y="611.677" width="365.732" height="16" transform="rotate(-89 349.001 611.677)" fill="#5BEED4"/>
<rect x="714.8" y="240.09" width="12.46" height="1" transform="rotate(-1 714.8 240.09)" fill="#5BEED4"/>
<rect x="349.004" y="611.477" width="11.9874" height="1" transform="rotate(-1 349.004 611.477)" fill="#5BEED4"/>
</g>
<defs>
<clipPath id="clip0">
<rect width="800" height="800" fill="white" transform="translate(140 26)"/>
</clipPath>
</defs>
</svg>
