<svg width="1600" height="1600" viewBox="0 0 1600 1600" fill="none" xmlns="http://www.w3.org/2000/svg">
<path d="M950 1340.1V1086.16L952.172 1084H966.293C973.774 1084 978.966 1085.92 981.862 1089.77C984.998 1093.38 986.569 1099.39 986.569 1107.81V1186.44C1001.05 1174.17 1017.71 1168.04 1036.53 1168.04C1055.85 1168.04 1070.69 1176.34 1081.07 1192.93C1091.69 1209.52 1097 1232.61 1097 1262.19C1097 1276.13 1094.95 1288.64 1090.84 1299.7C1086.74 1310.76 1081.07 1320.26 1073.83 1328.19C1066.59 1335.89 1058.02 1341.78 1048.12 1345.87C1038.47 1349.96 1027.97 1352 1016.62 1352C993.448 1352 971.24 1348.03 950 1340.1ZM1026.03 1199.06C1011.55 1199.06 998.395 1205.92 986.569 1219.62V1319.9C995.498 1322.78 1005.88 1324.23 1017.71 1324.23C1029.78 1324.23 1039.67 1318.58 1047.4 1307.27C1055.12 1295.97 1058.98 1279.98 1058.98 1259.3C1058.98 1238.38 1055.96 1223.11 1049.93 1213.49C1044.14 1203.87 1036.17 1199.06 1026.03 1199.06Z" fill="#5BEED4"/>
<path d="M422.603 1361.62C418.988 1364.52 414.65 1367.18 409.589 1369.59C404.767 1371.77 399.467 1373.7 393.683 1375.39C387.898 1376.84 381.992 1377.93 375.969 1378.65C370.185 1379.62 364.64 1380.1 359.339 1380.1C353.795 1380.1 344.517 1379.98 331.503 1379.74C318.489 1379.5 301.376 1379.14 280.169 1378.65L278 1376.12V1133.01L280.169 1130.48C301.137 1129.75 327.649 1129.39 359.701 1129.39C379.222 1129.39 395.49 1132.65 408.504 1139.17C421.519 1145.69 431.88 1154.63 439.594 1165.98C447.547 1177.33 453.092 1190.74 456.223 1206.2C459.355 1221.41 460.923 1237.72 460.923 1255.11C460.923 1279.26 458.27 1300.03 452.97 1317.42C447.909 1334.57 437.786 1349.31 422.603 1361.62ZM359.701 1160.55H316.32V1348.94H359.701C400.673 1348.94 421.157 1317.54 421.157 1254.75C421.157 1221.9 415.974 1197.99 405.612 1183.01C395.49 1168.04 380.185 1160.55 359.701 1160.55ZM625.927 1363.07C612.673 1376.36 595.199 1383 573.508 1383C560.978 1383 549.893 1380.83 540.25 1376.48C530.611 1371.89 522.418 1365.49 515.667 1357.28C509.16 1348.82 504.099 1338.92 500.484 1327.57C497.113 1315.97 495.423 1303.05 495.423 1288.8C495.423 1274.79 497.113 1261.99 500.484 1250.4C504.099 1238.8 509.16 1228.9 515.667 1220.69C522.418 1212.24 530.611 1205.84 540.25 1201.49C549.893 1196.9 560.978 1194.6 573.508 1194.6C586.044 1194.6 597.128 1196.9 606.767 1201.49C616.41 1205.84 624.481 1212.24 630.988 1220.69C637.739 1228.9 642.801 1238.8 646.171 1250.4C649.786 1261.99 651.594 1274.79 651.594 1288.8C651.594 1321.17 643.04 1345.92 625.927 1363.07ZM573.508 1223.23C547.24 1223.23 534.104 1245.08 534.104 1288.8C534.104 1332.52 547.24 1354.38 573.508 1354.38C600.021 1354.38 613.274 1332.52 613.274 1288.8C613.274 1245.08 600.021 1223.23 573.508 1223.23ZM694.086 1322.13V1237.72C694.086 1223.23 692.034 1212.36 687.94 1205.11C693.964 1199.8 701.795 1197.14 711.438 1197.14C724.692 1197.14 731.321 1204.99 731.321 1220.69V1313.08C731.321 1325.64 732.884 1334.57 736.021 1339.89C739.152 1345.2 744.697 1347.86 752.65 1347.86C760.603 1347.86 768.674 1345.92 776.871 1342.06C785.064 1337.95 792.416 1332.52 798.923 1325.76V1199.31C805.67 1198.35 811.815 1197.86 817.36 1197.86C822.9 1197.86 829.29 1198.35 836.52 1199.31V1327.57C836.52 1344.48 839.891 1355.95 846.642 1361.99C843.99 1370.68 839.29 1376.96 832.543 1380.83C817.36 1378.17 807.238 1369.47 802.177 1354.74C783.378 1372.61 763.251 1381.55 741.805 1381.55C725.899 1381.55 713.969 1376.12 706.016 1365.25C698.062 1354.38 694.086 1340.01 694.086 1322.13ZM893.228 1369.23V1114.17L895.397 1112H909.496C916.97 1112 922.148 1113.93 925.041 1117.8C928.177 1121.42 929.74 1127.46 929.74 1135.91V1214.89C944.2 1202.57 960.83 1196.42 979.628 1196.42C998.91 1196.42 1013.73 1204.75 1024.09 1221.41C1034.7 1238.08 1040 1261.27 1040 1290.98C1040 1304.98 1037.95 1317.54 1033.85 1328.66C1029.76 1339.77 1024.09 1349.31 1016.86 1357.28C1009.63 1365.01 1001.08 1370.92 991.196 1375.03C981.558 1379.14 971.074 1381.19 959.745 1381.19C936.609 1381.19 914.44 1377.2 893.228 1369.23ZM969.145 1227.57C954.684 1227.57 941.553 1234.46 929.74 1248.22V1348.94C938.661 1351.84 949.022 1353.29 960.83 1353.29C972.882 1353.29 982.765 1347.62 990.474 1336.26C998.187 1324.91 1002.04 1308.85 1002.04 1288.08C1002.04 1267.06 999.032 1251.73 993.004 1242.07C987.22 1232.4 979.267 1227.57 969.145 1227.57Z" fill="#E46E6E"/>
<path d="M1170.91 1349.39H1184.27C1186.43 1355.43 1187.52 1360.75 1187.52 1365.33C1187.52 1369.92 1187.16 1373.55 1186.43 1376.2C1176.81 1377.89 1166.58 1378.74 1155.74 1378.74C1131.91 1378.74 1120 1366.3 1120 1341.42V1113.17L1122.53 1111H1136.61C1144.07 1111 1149.25 1112.93 1152.13 1116.8C1155.26 1120.42 1156.83 1126.46 1156.83 1134.91V1333.09C1156.83 1343.96 1161.52 1349.39 1170.91 1349.39ZM1355.47 1299.76H1249.32C1250.04 1316.42 1253.54 1329.23 1259.79 1338.16C1266.29 1347.1 1277.12 1351.57 1292.29 1351.57C1299.51 1351.57 1307.21 1350.48 1315.4 1348.31C1323.82 1346.13 1332.49 1342.63 1341.39 1337.8C1347.41 1343.35 1351.38 1351.33 1353.31 1361.71C1334.05 1375.24 1311.42 1382 1285.43 1382C1271.71 1382 1260.15 1379.58 1250.77 1374.75C1241.38 1369.92 1233.68 1363.28 1227.66 1354.83C1221.88 1346.37 1217.67 1336.35 1215.02 1324.76C1212.38 1312.92 1211.05 1300.24 1211.05 1286.72C1211.05 1273.43 1212.74 1261.11 1216.1 1249.76C1219.48 1238.17 1224.29 1228.26 1230.55 1220.05C1236.81 1211.84 1244.51 1205.44 1253.65 1200.85C1263.04 1196.02 1273.51 1193.6 1285.07 1193.6C1296.62 1193.6 1306.85 1195.54 1315.76 1199.4C1324.9 1203.27 1332.61 1208.7 1338.86 1215.7C1345.12 1222.47 1349.82 1230.68 1352.95 1240.34C1356.32 1249.76 1358 1260.03 1358 1271.14C1358 1275.97 1357.76 1280.8 1357.28 1285.63C1357.04 1290.22 1356.44 1294.93 1355.47 1299.76ZM1286.15 1221.5C1263.29 1221.5 1251.01 1238.53 1249.32 1272.59H1322.26V1267.88C1322.26 1254.11 1319.25 1243 1313.23 1234.54C1307.45 1225.85 1298.43 1221.5 1286.15 1221.5Z" fill="#E46E6E"/>
<g clip-path="url(#clip0)">
<rect width="800" height="800" transform="translate(400 218)" fill="white"/>
<rect x="400" y="218.579" width="16" height="800" fill="#E46E6E"/>
<rect x="414.781" y="218" width="20.6161" height="800.619" transform="rotate(1 414.781 218)" fill="#E46E6E"/>
<rect width="16" height="799.144" transform="matrix(0 -1 -1 0 1207.42 1017.59)" fill="#E46E6E"/>
<rect width="20.6161" height="799.763" transform="matrix(-0.0174337 -0.999848 -0.999847 0.0174711 1208 1002.61)" fill="#E46E6E"/>
<rect width="16" height="799.144" transform="matrix(0 1 1 0 418.578 218)" fill="#E46E6E"/>
<rect width="20.6161" height="799.763" transform="matrix(0.0174337 0.999848 0.999847 -0.0174711 418 232.973)" fill="#E46E6E"/>
<rect x="1200.39" y="1018.28" width="16" height="800" transform="rotate(-180 1200.39 1018.28)" fill="#E46E6E"/>
<rect x="1185.61" y="1018.86" width="20.6161" height="800.619" transform="rotate(-179 1185.61 1018.86)" fill="#E46E6E"/>
<rect x="620" y="438" width="360" height="360" fill="#5BEED4"/>
<rect x="620" y="788.283" width="360" height="16" transform="rotate(-1 620 788.283)" fill="#5BEED4"/>
<rect x="620" y="438.283" width="360" height="16" transform="rotate(-1 620 438.283)" fill="#5BEED4"/>
<rect x="964.898" y="797.747" width="365.556" height="16" transform="rotate(-89 964.898 797.747)" fill="#5BEED4"/>
<rect x="609.001" y="803.677" width="365.732" height="16" transform="rotate(-89 609.001 803.677)" fill="#5BEED4"/>
<rect x="974.8" y="432.09" width="12.46" height="1" transform="rotate(-1 974.8 432.09)" fill="#5BEED4"/>
<rect x="609.004" y="803.477" width="11.9874" height="1" transform="rotate(-1 609.004 803.477)" fill="#5BEED4"/>
</g>
<defs>
<clipPath id="clip0">
<rect width="800" height="800" fill="white" transform="translate(400 218)"/>
</clipPath>
</defs>
</svg>
