<svg width="576" height="512" viewBox="0 0 576 512" fill="none" xmlns="http://www.w3.org/2000/svg">
<g clip-path="url(#clip0)">
<path d="M574.1 280.37L528.75 98.6599C522.84 74.9599 507.16 54.6099 485.75 42.8499C464.31 31.1199 438.78 28.7399 415.56 36.5199L400.31 41.5999C391.92 44.3899 387.39 53.4599 390.19 61.8399L395.25 77.0199C398.04 85.3999 407.1 89.9299 415.48 87.1399L428.66 82.7499C439.53 79.1299 451.66 79.1799 461.82 84.4799C472.11 89.8499 479.39 99.0399 482.19 110.3L520.65 264.12C498.46 257.31 470.86 251.66 439.45 251.66C404.68 251.66 365.47 258.68 324.6 278.4H251.42C210.55 258.66 171.34 251.65 136.56 251.65C105.14 251.65 77.54 257.3 55.35 264.11L93.81 110.28C96.6 99.0299 103.9 89.8299 114.19 84.4699C124.35 79.1699 136.47 79.1199 147.34 82.7399L160.51 87.1299C168.89 89.9199 177.95 85.3899 180.74 77.0099L185.8 61.8299C188.6 53.4499 184.07 44.3799 175.68 41.5899L160.43 36.5099C137.21 28.7299 111.68 31.0999 90.24 42.8399C68.83 54.6099 53.15 74.9499 47.24 98.6399L1.9 280.37C0.639299 285.437 0.00125528 290.638 0 295.86L0 366.11C0 429.01 51.58 480 115.2 480H152.32C212.6 480 262.69 434.06 267.2 374.63L270.13 336H305.88L308.81 374.63C313.31 434.06 363.4 480 423.68 480H460.8C524.42 480 576 429.01 576 366.12V295.87C576 290.64 575.36 285.44 574.1 280.37ZM203.38 369.79C201.41 395.7 178.98 416 152.32 416H115.2C86.97 416 64 393.62 64 366.11V328.57C82.12 322.08 107.42 315.65 136.58 315.65C160.44 315.65 183.84 319.98 206.51 328.57L203.38 369.79V369.79ZM512 366.12C512 393.63 489.03 416 460.8 416H423.68C397.01 416 374.58 395.7 372.62 369.79L369.49 328.57C392.16 319.98 415.57 315.65 439.44 315.65C468.56 315.65 493.87 322.09 511.99 328.58V366.12H512Z" fill="white"/>
</g>
<defs>
<clipPath id="clip0">
<rect width="576" height="512" fill="white"/>
</clipPath>
</defs>
</svg>
