<svg width="3360" height="901" viewBox="0 0 3360 901" fill="none" xmlns="http://www.w3.org/2000/svg">
<g clip-path="url(#clip0)">
<g clip-path="url(#clip1)">
<rect width="800" height="800" transform="translate(57 50)" fill="white"/>
<rect x="57" y="50.5786" width="16" height="800" fill="#E46E6E"/>
<rect x="71.7808" y="50" width="20.6161" height="800.619" transform="rotate(1 71.7808 50)" fill="#E46E6E"/>
<rect width="16" height="799.144" transform="matrix(0 -1 -1 0 864.422 849.586)" fill="#E46E6E"/>
<rect width="20.6161" height="799.763" transform="matrix(-0.0174337 -0.999848 -0.999847 0.0174711 865 834.613)" fill="#E46E6E"/>
<rect width="16" height="799.144" transform="matrix(0 1 1 0 75.578 50)" fill="#E46E6E"/>
<rect width="20.6161" height="799.763" transform="matrix(0.0174337 0.999848 0.999847 -0.0174711 75 64.9728)" fill="#E46E6E"/>
<rect x="857.394" y="850.279" width="16" height="800" transform="rotate(-180 857.394 850.279)" fill="#E46E6E"/>
<rect x="842.613" y="850.857" width="20.6161" height="800.619" transform="rotate(-179 842.613 850.857)" fill="#E46E6E"/>
<rect x="277" y="270" width="360" height="360" fill="#5BEED4"/>
<rect x="277" y="620.283" width="360" height="16" transform="rotate(-1 277 620.283)" fill="#5BEED4"/>
<rect x="277" y="270.283" width="360" height="16" transform="rotate(-1 277 270.283)" fill="#5BEED4"/>
<rect x="621.899" y="629.747" width="365.556" height="16" transform="rotate(-89 621.899 629.747)" fill="#5BEED4"/>
<rect x="266.001" y="635.677" width="365.732" height="16" transform="rotate(-89 266.001 635.677)" fill="#5BEED4"/>
<rect x="631.8" y="264.09" width="12.46" height="1" transform="rotate(-1 631.8 264.09)" fill="#5BEED4"/>
<rect x="266.005" y="635.477" width="11.9874" height="1" transform="rotate(-1 266.005 635.477)" fill="#5BEED4"/>
</g>
<path d="M2425.72 663.5V142.54L2430.16 138.1H2459.02C2474.31 138.1 2484.92 142.047 2490.84 149.94C2497.25 157.34 2500.46 169.673 2500.46 186.94V348.26C2530.06 323.1 2564.1 310.52 2602.58 310.52C2642.05 310.52 2672.39 327.54 2693.6 361.58C2715.31 395.62 2726.16 442.98 2726.16 503.66C2726.16 532.273 2721.97 557.927 2713.58 580.62C2705.19 603.313 2693.6 622.8 2678.8 639.08C2664 654.867 2646.49 666.953 2626.26 675.34C2606.53 683.727 2585.07 687.92 2561.88 687.92C2514.52 687.92 2469.13 679.78 2425.72 663.5ZM2581.12 374.16C2551.52 374.16 2524.63 388.22 2500.46 416.34V622.06C2518.71 627.98 2539.93 630.94 2564.1 630.94C2588.77 630.94 2608.99 619.347 2624.78 596.16C2640.57 572.973 2648.46 540.167 2648.46 497.74C2648.46 454.82 2642.29 423.493 2629.96 403.76C2618.12 384.027 2601.84 374.16 2581.12 374.16Z" fill="#5BEED4"/>
<path d="M1346.34 705.96C1338.94 711.88 1330.06 717.307 1319.7 722.24C1309.83 726.68 1298.98 730.627 1287.14 734.08C1275.3 737.04 1263.21 739.26 1250.88 740.74C1239.04 742.713 1227.69 743.7 1216.84 743.7C1205.49 743.7 1186.5 743.453 1159.86 742.96C1133.22 742.467 1098.19 741.727 1054.78 740.74L1050.34 735.56V239.02L1054.78 233.84C1097.7 232.36 1151.97 231.62 1217.58 231.62C1257.54 231.62 1290.84 238.28 1317.48 251.6C1344.12 264.92 1365.33 283.173 1381.12 306.36C1397.4 329.547 1408.75 356.927 1415.16 388.5C1421.57 419.58 1424.78 452.88 1424.78 488.4C1424.78 537.733 1419.35 580.16 1408.5 615.68C1398.14 650.707 1377.42 680.8 1346.34 705.96ZM1217.58 295.26H1128.78V680.06H1217.58C1301.45 680.06 1343.38 615.927 1343.38 487.66C1343.38 420.567 1332.77 371.727 1311.56 341.14C1290.84 310.553 1259.51 295.26 1217.58 295.26ZM1762.54 708.92C1735.41 736.053 1699.64 749.62 1655.24 749.62C1629.59 749.62 1606.9 745.18 1587.16 736.3C1567.43 726.927 1550.66 713.853 1536.84 697.08C1523.52 679.813 1513.16 659.587 1505.76 636.4C1498.86 612.72 1495.4 586.327 1495.4 557.22C1495.4 528.607 1498.86 502.46 1505.76 478.78C1513.16 455.1 1523.52 434.873 1536.84 418.1C1550.66 400.833 1567.43 387.76 1587.16 378.88C1606.9 369.507 1629.59 364.82 1655.24 364.82C1680.9 364.82 1703.59 369.507 1723.32 378.88C1743.06 387.76 1759.58 400.833 1772.9 418.1C1786.72 434.873 1797.08 455.1 1803.98 478.78C1811.38 502.46 1815.08 528.607 1815.08 557.22C1815.08 623.327 1797.57 673.893 1762.54 708.92ZM1655.24 423.28C1601.47 423.28 1574.58 467.927 1574.58 557.22C1574.58 646.513 1601.47 691.16 1655.24 691.16C1709.51 691.16 1736.64 646.513 1736.64 557.22C1736.64 467.927 1709.51 423.28 1655.24 423.28ZM1902.06 625.3V452.88C1902.06 423.28 1897.86 401.08 1889.48 386.28C1901.81 375.427 1917.84 370 1937.58 370C1964.71 370 1978.28 386.033 1978.28 418.1V606.8C1978.28 632.453 1981.48 650.707 1987.9 661.56C1994.31 672.413 2005.66 677.84 2021.94 677.84C2038.22 677.84 2054.74 673.893 2071.52 666C2088.29 657.613 2103.34 646.513 2116.66 632.7V374.44C2130.47 372.467 2143.05 371.48 2154.4 371.48C2165.74 371.48 2178.82 372.467 2193.62 374.44V636.4C2193.62 670.933 2200.52 694.367 2214.34 706.7C2208.91 724.46 2199.29 737.287 2185.48 745.18C2154.4 739.753 2133.68 721.993 2123.32 691.9C2084.84 728.407 2043.64 746.66 1999.74 746.66C1967.18 746.66 1942.76 735.56 1926.48 713.36C1910.2 691.16 1902.06 661.807 1902.06 625.3ZM2309.7 721.5V200.54L2314.14 196.1H2343C2358.3 196.1 2368.9 200.047 2374.82 207.94C2381.24 215.34 2384.44 227.673 2384.44 244.94V406.26C2414.04 381.1 2448.08 368.52 2486.56 368.52C2526.03 368.52 2556.37 385.54 2577.58 419.58C2599.29 453.62 2610.14 500.98 2610.14 561.66C2610.14 590.273 2605.95 615.927 2597.56 638.62C2589.18 661.313 2577.58 680.8 2562.78 697.08C2547.98 712.867 2530.47 724.953 2510.24 733.34C2490.51 741.727 2469.05 745.92 2445.86 745.92C2398.5 745.92 2353.12 737.78 2309.7 721.5ZM2465.1 432.16C2435.5 432.16 2408.62 446.22 2384.44 474.34V680.06C2402.7 685.98 2423.91 688.94 2448.08 688.94C2472.75 688.94 2492.98 677.347 2508.76 654.16C2524.55 630.973 2532.44 598.167 2532.44 555.74C2532.44 512.82 2526.28 481.493 2513.94 461.76C2502.1 442.027 2485.82 432.16 2465.1 432.16Z" fill="#E46E6E"/>
<path d="M2877.58 681.02H2904.96C2909.4 693.353 2911.62 704.207 2911.62 713.58C2911.62 722.953 2910.88 730.353 2909.4 735.78C2889.67 739.233 2868.7 740.96 2846.5 740.96C2797.66 740.96 2773.24 715.553 2773.24 664.74V198.54L2778.42 194.1H2807.28C2822.57 194.1 2833.18 198.047 2839.1 205.94C2845.51 213.34 2848.72 225.673 2848.72 242.94V647.72C2848.72 669.92 2858.34 681.02 2877.58 681.02ZM3255.85 579.64H3038.29C3039.77 613.68 3046.93 639.827 3059.75 658.08C3073.07 676.333 3095.27 685.46 3126.35 685.46C3141.15 685.46 3156.94 683.24 3173.71 678.8C3190.98 674.36 3208.74 667.207 3226.99 657.34C3239.33 668.687 3247.47 684.967 3251.41 706.18C3211.95 733.807 3165.57 747.62 3112.29 747.62C3084.17 747.62 3060.49 742.687 3041.25 732.82C3022.01 722.953 3006.23 709.387 2993.89 692.12C2982.05 674.853 2973.42 654.38 2967.99 630.7C2962.57 606.527 2959.85 580.627 2959.85 553C2959.85 525.867 2963.31 500.707 2970.21 477.52C2977.12 453.84 2986.99 433.613 2999.81 416.84C3012.64 400.067 3028.43 386.993 3047.17 377.62C3066.41 367.753 3087.87 362.82 3111.55 362.82C3135.23 362.82 3156.2 366.767 3174.45 374.66C3193.2 382.553 3208.99 393.653 3221.81 407.96C3234.64 421.773 3244.26 438.547 3250.67 458.28C3257.58 477.52 3261.03 498.487 3261.03 521.18C3261.03 531.047 3260.54 540.913 3259.55 550.78C3259.06 560.153 3257.83 569.773 3255.85 579.64ZM3113.77 419.8C3066.91 419.8 3041.75 454.58 3038.29 524.14H3187.77V514.52C3187.77 486.4 3181.61 463.707 3169.27 446.44C3157.43 428.68 3138.93 419.8 3113.77 419.8Z" fill="#E46E6E"/>
</g>
<defs>
<clipPath id="clip0">
<rect width="3360" height="901" fill="white"/>
</clipPath>
<clipPath id="clip1">
<rect width="800" height="800" fill="white" transform="translate(57 50)"/>
</clipPath>
</defs>
</svg>
